<svg width="24" height="24" viewBox="0 0 24 24" fill="none" xmlns="http://www.w3.org/2000/svg">
<path d="M23.4375 17.8711C23.5312 17.9648 23.6133 18.0781 23.6836 18.2109C23.7539 18.3438 23.8125 18.4844 23.8594 18.6328C23.9062 18.7812 23.9414 18.9316 23.9648 19.084C23.9883 19.2363 24 19.375 24 19.5C24 19.7109 23.9609 19.9062 23.8828 20.0859C23.8047 20.2656 23.6973 20.4238 23.5605 20.5605C23.4238 20.6973 23.2656 20.8047 23.0859 20.8828C22.9062 20.9609 22.7109 21 22.5 21H1.5C1.28906 21 1.09375 20.9609 0.914062 20.8828C0.734375 20.8047 0.576172 20.6973 0.439453 20.5605C0.302734 20.4238 0.195312 20.2656 0.117188 20.0859C0.0390625 19.9062 0 19.7109 0 19.5C0 19.375 0.0117188 19.2363 0.0351562 19.084C0.0585938 18.9316 0.09375 18.7812 0.140625 18.6328C0.1875 18.4844 0.246094 18.3438 0.316406 18.2109C0.386719 18.0781 0.46875 17.9648 0.5625 17.8711L3 15.4336V4.5H21V15.4336L23.4375 17.8711ZM4.5 15H19.5V6H4.5V15ZM22.5 19.5C22.5 19.4141 22.4844 19.3027 22.4531 19.166C22.4219 19.0293 22.375 18.9297 22.3125 18.8672L19.9336 16.5H4.06641L1.6875 18.8672C1.625 18.9297 1.57812 19.0293 1.54688 19.166C1.51562 19.3027 1.5 19.4141 1.5 19.5H22.5Z" fill="white"/>
</svg>
