<svg width="16" height="20" viewBox="0 0 16 20" fill="none" xmlns="http://www.w3.org/2000/svg">
<path d="M16 8.89193V18.4064C15.9992 18.6954 15.8701 18.9722 15.641 19.1765C15.4119 19.3808 15.1013 19.4959 14.7773 19.4966H1.22269C0.898666 19.4959 0.588142 19.3808 0.359019 19.1765C0.129896 18.9722 0.000815169 18.6954 0 18.4064V8.89193C0.000815169 8.60301 0.129896 8.32614 0.359019 8.12184C0.588142 7.91755 0.898666 7.80245 1.22269 7.80173H2.54419V5.36804C2.54419 4.72921 2.68531 4.09663 2.95949 3.50643C3.23367 2.91623 3.63554 2.37995 4.14216 1.92823C4.64878 1.47651 5.25022 1.11819 5.91215 0.873715C6.57408 0.629245 7.28353 0.503418 8 0.503418C8.71647 0.503418 9.42592 0.629245 10.0878 0.873715C10.7498 1.11819 11.3512 1.47651 11.8578 1.92823C12.3645 2.37995 12.7663 2.91623 13.0405 3.50643C13.3147 4.09663 13.4558 4.72921 13.4558 5.36804V7.80173H14.7773C15.1013 7.80245 15.4119 7.91755 15.641 8.12184C15.8701 8.32614 15.9992 8.60301 16 8.89193ZM11.7453 5.36804C11.7453 4.48237 11.3507 3.63297 10.6483 3.0067C9.94593 2.38043 8.99331 2.0286 8 2.0286C7.00669 2.0286 6.05407 2.38043 5.35169 3.0067C4.64932 3.63297 4.25473 4.48237 4.25473 5.36804V7.80173H11.7453V5.36804ZM9.71054 12.3924C9.71054 12.1195 9.62841 11.8515 9.4727 11.6166C9.31699 11.3816 9.09341 11.1882 8.82529 11.0565C8.55717 10.9248 8.25433 10.8597 7.94836 10.8679C7.6424 10.8761 7.34451 10.9574 7.0858 11.1033C6.82708 11.2492 6.617 11.4543 6.47748 11.6972C6.33796 11.9402 6.2741 12.212 6.29258 12.4845C6.31106 12.7569 6.41119 13.0199 6.58253 13.2461C6.75387 13.4723 6.99014 13.6533 7.26669 13.7703V16.3155C7.26669 16.4889 7.34395 16.6552 7.48147 16.7778C7.619 16.9005 7.80551 16.9694 8 16.9694C8.19449 16.9694 8.38101 16.9005 8.51853 16.7778C8.65605 16.6552 8.73331 16.4889 8.73331 16.3155V13.7703C9.02571 13.6466 9.27274 13.4515 9.44572 13.2076C9.61871 12.9637 9.71053 12.681 9.71054 12.3924Z" fill="white"/>
</svg>
