<svg width="185" height="36" viewBox="0 0 185 36" fill="none" xmlns="http://www.w3.org/2000/svg">
<path d="M24.0225 11.0297C23.9878 9.92097 23.5496 9.06257 22.6154 8.50222C21.6755 7.94188 20.6376 7.79881 19.5823 7.79285C14.7328 7.78093 9.87743 7.78689 5.0279 7.78689C4.8376 7.78689 4.64155 7.79285 4.45126 7.78689C4.31286 7.78093 4.24943 7.82862 4.21484 7.97764C4.10528 8.46049 3.97265 8.93739 3.85155 9.41428C3.64973 10.2071 3.4479 10.9999 3.24608 11.8166H12.1783C12.1783 11.8345 12.1783 11.8524 12.1783 11.8702C12.1205 11.8941 12.0571 11.9239 11.9995 11.9477C9.89476 12.7704 7.78424 13.593 5.6795 14.4097C5.52957 14.4693 5.42578 14.5408 5.37965 14.7197C4.2552 19.0296 3.11922 23.3454 1.98324 27.6553C1.92557 27.8818 1.9544 27.9295 2.18506 27.9295C4.26097 27.9176 6.33688 27.9176 8.41278 27.9295C8.62037 27.9295 8.6838 27.858 8.7357 27.6672C9.22584 25.7656 9.73329 23.864 10.2235 21.9565C10.2927 21.6942 10.3964 21.6167 10.6501 21.6286C11.6017 21.6584 12.5531 21.6703 13.5045 21.6644C14.8654 21.6524 16.232 21.7597 17.5871 21.5511C19.9513 21.1815 21.664 19.9416 22.5059 17.575C22.9845 16.2338 23.244 14.827 23.613 13.4559C23.8207 12.6571 24.0455 11.8702 24.0225 11.0297ZM16.3878 14.7018C16.2608 15.2264 16.1455 15.7629 15.9322 16.2636C15.5689 17.122 14.9461 17.587 14.035 17.6048C13.2105 17.6227 12.3858 17.6108 11.5555 17.6168C11.394 17.6168 11.3594 17.581 11.4056 17.4141C11.8841 15.6198 12.357 13.8255 12.8241 12.0252C12.8702 11.8583 12.9452 11.8106 13.1066 11.8166C13.5276 11.8285 13.9543 11.8225 14.4617 11.8225C14.8885 11.8464 15.4075 11.7689 15.9207 11.8822C16.48 12.0073 16.7395 12.3352 16.7337 12.9313C16.7337 13.5453 16.5319 14.1176 16.3878 14.7018Z" fill="#209AFF"/>
<path d="M39.6552 12.073C38.992 11.8405 38.3116 11.7511 37.6139 11.7452C34.7019 11.7392 31.7898 11.7213 28.8778 11.7392C27.4651 11.7511 26.404 12.4307 25.7293 13.7242C25.516 14.1356 25.366 14.5767 25.2219 15.0178C25.1469 15.2503 25.1931 15.3159 25.441 15.3159C27.1421 15.3039 28.8432 15.3099 30.5443 15.3099C30.6654 15.3099 30.7922 15.2801 30.9306 15.3636C30.8383 15.4053 30.7634 15.441 30.6827 15.4709C28.7394 16.2637 26.7961 17.0506 24.8471 17.8374C24.6856 17.903 24.6049 17.9805 24.5588 18.1593C24.2243 19.429 23.8725 20.6988 23.5381 21.9685C23.3132 22.8209 23.0306 23.6555 22.9384 24.5377C22.7769 25.9982 23.4285 27.0831 24.7721 27.566C25.4121 27.7985 26.0811 27.9058 26.75 27.9058C30.5269 27.9236 34.304 27.9177 38.0752 27.9296C38.2712 27.9296 38.3116 27.8283 38.352 27.6792C38.6172 26.6241 38.8767 25.569 39.1535 24.5198C39.2112 24.2933 39.1593 24.2337 38.9344 24.2337C36.8527 24.2397 34.7653 24.2397 32.6778 24.2397C31.9974 24.2397 31.3112 24.2456 30.6308 24.2397C29.8061 24.2277 29.466 23.7985 29.5813 22.958C29.6332 22.5706 29.7658 22.2129 29.8811 21.8433C29.9445 21.6525 30.0368 21.6108 30.2098 21.6108C31.4381 21.6347 32.6663 21.6168 33.8945 21.6466C35.7398 21.6883 37.585 21.6525 39.4303 21.6645C39.6667 21.6645 39.7589 21.5989 39.8167 21.3604C40.1857 19.9119 40.5778 18.4753 40.9469 17.0267C41.1545 16.216 41.4082 15.4112 41.3909 14.5528C41.3736 13.307 40.7969 12.4784 39.6552 12.073ZM34.7711 16.5558C34.7077 17.0804 34.5461 17.5751 34.4366 18.0878C34.4135 18.1951 34.3674 18.2607 34.2463 18.2607C33.1161 18.2547 31.9801 18.2607 30.8211 18.2607C31.0633 17.3188 31.2939 16.4008 31.5246 15.4828C31.5534 15.3636 31.6226 15.3397 31.7322 15.3397C32.4241 15.3457 33.1161 15.3278 33.8023 15.3576C34.5174 15.3814 34.8633 15.8285 34.7711 16.5558Z" fill="#209AFF"/>
<path d="M40.8431 27.9295C41.414 25.6822 41.979 23.4825 42.5385 21.2769C42.7979 20.2635 43.0632 19.2501 43.3169 18.2308C43.363 18.0519 43.4438 17.9506 43.611 17.885C45.5312 17.1041 47.4457 16.3172 49.3601 15.5363C49.4755 15.4886 49.5908 15.4409 49.7292 15.3813C49.608 15.286 49.4927 15.3217 49.3889 15.3217C47.6878 15.3217 45.9867 15.3217 44.2857 15.3277C44.0954 15.3277 44.0607 15.2919 44.1184 15.0952C44.3894 14.0639 44.6547 13.0267 44.9084 11.9895C44.9545 11.7987 45.041 11.7451 45.2256 11.7451C48.9334 11.7451 52.6412 11.7391 56.3547 11.7451C56.9776 11.7451 57.6003 11.8166 58.2058 12.0014C59.7108 12.4604 60.3855 13.5513 60.1491 15.1667C59.976 16.353 59.6012 17.4916 59.3014 18.654C58.5287 21.6524 57.7329 24.639 56.9545 27.6315C56.8968 27.858 56.8161 27.9355 56.5739 27.9355C54.6883 27.9235 52.8084 27.9235 50.9228 27.9355C50.6922 27.9355 50.6345 27.8997 50.7037 27.6434C51.6263 24.1442 52.5374 20.645 53.4485 17.1458C53.5177 16.8776 53.558 16.6034 53.5523 16.3232C53.5408 15.7807 53.3274 15.5006 52.8026 15.3992C52.2894 15.2979 51.7704 15.3754 51.2515 15.3515C50.9574 15.3396 50.5941 15.2562 50.3808 15.3933C50.1559 15.5363 50.1847 15.9417 50.104 16.2338C49.1121 20.0191 48.1203 23.8044 47.1458 27.5957C47.0709 27.8759 46.967 27.9355 46.7017 27.9355C44.8681 27.9235 43.0286 27.9295 41.1949 27.9295C41.0853 27.9295 40.9815 27.9295 40.8431 27.9295Z" fill="#209AFF"/>
<path d="M80.9888 16.8956C80.4929 18.7077 80.0027 20.4901 79.5184 22.2665C79.4145 22.6421 79.3281 23.0176 79.3454 23.4051C79.3684 23.9058 79.6049 24.2158 80.0893 24.2754C80.8908 24.3768 81.7038 24.3112 82.5054 24.3112C82.7015 24.3112 82.6668 24.1383 82.6957 24.031C83.1108 22.4334 83.5203 20.8359 83.9239 19.2323C84.1316 18.4156 84.3276 17.599 84.5294 16.7823C84.5409 16.7227 84.5524 16.6631 84.5582 16.6035C84.639 15.7331 84.2987 15.3337 83.4511 15.3397C80.908 15.3457 78.3594 15.3636 75.8163 15.3695C75.6029 15.3695 75.3954 15.3576 75.1821 15.3636C75.0149 15.3695 74.9571 15.3218 75.0091 15.143C75.3089 14.07 75.6087 12.991 75.9029 11.9121C75.9374 11.7869 75.9836 11.7273 76.1163 11.7332C76.2488 11.7392 76.3872 11.7273 76.5198 11.7273C80.0489 11.7273 83.5721 11.7213 87.1012 11.7273C87.8912 11.7273 88.6639 11.8763 89.3962 12.2161C90.7917 12.8599 91.449 14.1117 91.1031 15.6556C90.734 17.283 90.29 18.8925 89.8691 20.514C89.2578 22.8746 88.6351 25.2411 88.0296 27.6017C87.9661 27.8462 87.8739 27.9177 87.6259 27.9177C84.0508 27.9058 80.4756 27.9117 76.9004 27.9117C76.1681 27.9117 75.4415 27.864 74.7323 27.6554C73.233 27.2202 72.5526 26.1234 72.7717 24.5318C72.9332 23.3693 73.3483 22.2725 73.6424 21.1458C73.752 20.7226 73.8846 20.3113 73.9999 19.888C74.0346 19.7509 74.0922 19.6675 74.2248 19.6138C76.4448 18.7077 78.6649 17.8017 80.885 16.8956C80.8966 16.9015 80.9254 16.9015 80.9888 16.8956Z" fill="#209AFF"/>
<path d="M72.1028 7.02384C71.728 8.49624 71.3589 9.95076 70.9841 11.4053C70.8918 11.757 70.8919 11.751 71.2551 11.7451C72.1028 11.7391 72.9447 11.751 73.7924 11.7391C73.9769 11.7391 73.9769 11.8106 73.9422 11.9477C73.6655 13.0207 73.3887 14.0937 73.1234 15.1667C73.0831 15.3337 73.0081 15.3813 72.8466 15.3813C71.9817 15.3754 71.1167 15.3813 70.2517 15.3754C70.05 15.3754 69.9577 15.429 69.9 15.6496C69.2772 18.1235 68.6372 20.5914 68.0086 23.0593C67.8068 23.8521 68.0721 24.2336 68.8563 24.2992C69.479 24.3528 70.1019 24.3171 70.7304 24.323C70.9322 24.323 71.0188 24.3409 70.9553 24.5913C70.6785 25.6285 70.4132 26.6777 70.1538 27.7209C70.1133 27.8759 70.0557 27.9295 69.9058 27.9355C67.8241 28.013 65.7367 27.9712 63.6607 27.7984C63.2975 27.7686 62.9399 27.6732 62.5997 27.548C61.7232 27.2261 61.285 26.6061 61.2677 25.6404C61.2504 24.7761 61.4753 23.9534 61.6887 23.1308C62.3403 20.645 62.9918 18.1592 63.6607 15.6794C63.73 15.4111 63.6838 15.3635 63.4301 15.3694C62.692 15.3873 61.9482 15.3754 61.21 15.3873C61.0543 15.3873 60.9621 15.3933 61.0197 15.1667C61.3023 14.0997 61.5733 13.0267 61.8385 11.9477C61.8847 11.7629 61.977 11.7451 62.1269 11.7451C62.865 11.751 63.6089 11.7391 64.347 11.751C64.5661 11.751 64.6814 11.7033 64.7391 11.453C65.0851 10.0402 65.4598 8.63931 65.8116 7.22652C65.852 7.07153 65.9038 7 66.0769 7C68.0547 7.00596 70.0385 7.00596 72.0163 7.00596C72.0278 7.00596 72.0452 7.01192 72.1028 7.02384Z" fill="#209AFF"/>
<path d="M175.275 19.5363C176.388 18.1176 177.467 16.7406 178.55 15.3576C179.392 14.2846 180.234 13.2176 181.076 12.1445C181.139 12.0611 181.197 12.0015 181.313 12.0015C181.878 12.0074 182.443 12.0015 183.036 12.0015C182.968 12.2399 182.795 12.377 182.667 12.532C180.355 15.4232 178.043 18.3143 175.73 21.2055C175.558 21.426 175.506 21.6823 175.443 21.9387C174.976 23.9416 174.508 25.9446 174.053 27.9475C174.018 28.1084 173.949 28.174 173.776 28.1681C173.401 28.1561 173.026 28.1502 172.652 28.1681C172.409 28.18 172.387 28.0965 172.439 27.8879C172.761 26.5526 173.073 25.2113 173.384 23.876C173.562 23.1249 173.736 22.3738 173.915 21.6227C173.949 21.4737 173.931 21.3306 173.885 21.1876C173.177 18.9343 172.473 16.681 171.763 14.4277C171.533 13.6944 171.302 12.9612 171.013 12.222C170.927 12.5857 170.829 12.9433 170.76 13.3129C170.714 13.5454 170.628 13.6289 170.379 13.6289C169.042 13.611 167.71 13.6229 166.372 13.6169C166.199 13.6169 166.118 13.6468 166.066 13.8554C165.133 17.8911 164.186 21.9208 163.246 25.9505C163.091 26.6122 162.923 27.2739 162.774 27.9415C162.733 28.1263 162.652 28.174 162.48 28.1681C162.105 28.1561 161.73 28.1561 161.355 28.1681C161.164 28.174 161.112 28.1382 161.164 27.9177C161.511 26.4751 161.846 25.0325 162.179 23.5899C162.941 20.3471 163.697 17.1042 164.463 13.8673C164.509 13.6766 164.469 13.6169 164.267 13.6169C162.929 13.6289 161.597 13.6169 160.26 13.6289C160 13.6289 159.954 13.5693 160.023 13.3189C160.121 12.9791 160.196 12.6274 160.265 12.2817C160.306 12.0909 160.369 12.0074 160.582 12.0074C164.59 12.0134 168.598 12.0134 172.605 12.0074C172.796 12.0074 172.888 12.0611 172.952 12.2578C173.672 14.5648 174.404 16.8717 175.137 19.1787C175.183 19.28 175.223 19.3814 175.275 19.5363Z" fill="#FAFAFA"/>
<path d="M153.6 12.4783C153 12.1266 152.33 12.0193 151.656 12.0133C149.362 11.9954 147.066 12.0073 144.771 11.9954C144.552 11.9954 144.506 12.0908 144.46 12.2816C143.526 16.3053 142.579 20.3231 141.64 24.3469C141.363 25.5272 141.086 26.7134 140.804 27.8937C140.752 28.1083 140.798 28.1799 141.011 28.168C141.374 28.156 141.743 28.1501 142.106 28.168C142.315 28.1799 142.378 28.0964 142.424 27.8997C142.886 25.9087 143.358 23.9177 143.819 21.9267C143.865 21.7359 143.929 21.7001 144.102 21.7061C144.621 21.724 145.14 21.7121 145.659 21.7121C146.899 21.718 148.139 21.7001 149.378 21.7299C150.186 21.7478 150.832 22.1353 150.844 23.1189C150.848 23.5004 150.814 23.87 150.734 24.2396C150.457 25.4735 150.174 26.7075 149.88 27.9355C149.834 28.1322 149.869 28.1799 150.053 28.1739C150.428 28.162 150.802 28.156 151.177 28.1739C151.385 28.1858 151.46 28.1024 151.506 27.9057C151.65 27.2499 151.817 26.6002 151.956 25.9385C152.164 24.943 152.509 23.9773 152.573 22.952C152.637 21.9445 152.268 21.2173 151.217 21.0086C151.137 20.9908 151.057 20.961 150.912 20.9192C152.262 20.7165 153.167 19.9953 153.668 18.7673C154.222 17.4081 154.58 15.9894 154.597 14.5051C154.597 13.6705 154.36 12.9254 153.6 12.4783ZM152.982 14.9581C152.867 16.2397 152.579 17.4797 152.037 18.6421C151.628 19.5243 150.872 19.8939 149.972 20.0012C148.756 20.1443 147.533 20.0429 146.316 20.0668C145.722 20.0787 145.123 20.0549 144.529 20.0727C144.298 20.0787 144.258 20.0131 144.31 19.7926C144.679 18.2486 145.042 16.6988 145.405 15.1489C145.497 14.7435 145.601 14.3441 145.682 13.9328C145.728 13.7063 145.803 13.6109 146.057 13.6168C146.905 13.6347 147.746 13.6228 148.594 13.6228V13.6288C149.418 13.6288 150.249 13.6228 151.074 13.6347C151.466 13.6407 151.858 13.6884 152.232 13.8255C152.74 14.0043 153.034 14.3978 152.982 14.9581Z" fill="#FAFAFA"/>
<path d="M104.124 16.4245C104.187 15.9834 104.262 15.5721 104.308 15.1608C104.429 14.0282 104.032 13.6765 103.201 13.5811C101.938 13.438 100.675 13.4619 99.4067 13.599C98.2076 13.7242 97.5499 14.4335 97.2559 15.584C97.1001 16.198 96.9617 16.812 96.9041 17.4499C96.8233 18.3261 97.302 18.8746 98.2477 18.9878C99.066 19.0832 99.8971 19.0415 100.721 19.107C101.541 19.1726 102.371 19.1845 103.172 19.4051C104.084 19.6555 104.55 20.2277 104.568 21.1934C104.596 22.9997 104.146 24.6867 103.304 26.2604C102.67 27.4466 101.615 28.007 100.346 28.1679C98.9055 28.3527 97.4519 28.3349 96.0045 28.2216C95.5202 28.1858 95.0358 28.0905 94.5802 27.8937C93.8133 27.5659 93.4385 26.9519 93.3751 26.1233C93.3001 25.1457 93.5249 24.2157 93.7788 23.2858C93.8191 23.1487 93.8941 23.101 94.0325 23.107C94.4188 23.1129 94.7994 23.1248 95.1857 23.107C95.4048 23.095 95.4452 23.1606 95.3934 23.3692C95.2492 23.9236 95.1339 24.484 95.0934 25.0622C95.0242 26.0696 95.376 26.5406 96.3506 26.6121C97.671 26.7075 98.9975 26.7313 100.318 26.5763C101.177 26.475 101.788 26.0398 102.145 25.2351C102.544 24.3528 102.786 23.4289 102.878 22.4632C102.987 21.3782 102.607 20.9311 101.563 20.8477C100.387 20.7583 99.2109 20.6867 98.0343 20.5973C97.6133 20.5675 97.1925 20.5198 96.783 20.4125C95.5144 20.0727 95.1223 19.3157 95.1857 18.0937C95.2607 16.6749 95.6413 15.3217 96.3043 14.0699C96.9444 12.8657 97.959 12.2279 99.251 12.0252C100.595 11.8106 101.95 11.8583 103.3 11.912C103.651 11.9299 104.002 11.9835 104.349 12.0729C105.692 12.4067 106.084 13.2592 106.044 14.517C106.027 15.0892 105.905 15.6556 105.773 16.2159C105.733 16.3709 105.675 16.4424 105.502 16.4424C105.041 16.4126 104.585 16.4245 104.124 16.4245Z" fill="#FAFAFA"/>
<path d="M120.096 28.2872C119.514 28.2514 118.799 28.3408 118.078 28.2335C116.781 28.0428 115.893 27.0651 115.738 25.7179C115.61 24.6151 115.841 23.5719 116.089 22.5228C116.556 20.5496 117.012 18.5765 117.479 16.6093C117.64 15.9357 117.888 15.286 118.205 14.672C118.92 13.3009 120.028 12.4783 121.486 12.1385C122.288 11.9537 123.095 11.8762 123.914 11.8881C124.883 11.9 125.852 11.8166 126.814 11.9477C128.089 12.1206 128.804 12.9254 128.821 14.2666C128.832 15.1548 128.648 16.0192 128.441 16.8716C128.406 17.0147 128.337 17.0385 128.216 17.0385C127.812 17.0326 127.408 17.0326 127.005 17.0385C126.82 17.0445 126.808 16.973 126.843 16.8001C126.947 16.3411 127.063 15.8761 127.109 15.4052C127.241 14.1593 126.918 13.6347 125.725 13.5394C124.358 13.438 122.98 13.4142 121.624 13.7122C120.385 13.9864 119.635 14.8031 119.255 16.0132C118.845 17.3127 118.598 18.66 118.281 19.9833C117.968 21.2888 117.629 22.5883 117.438 23.9236C117.369 24.4065 117.334 24.8893 117.409 25.3722C117.519 26.0458 117.974 26.5286 118.747 26.5942C120.258 26.7194 121.775 26.7671 123.279 26.4988C124.075 26.3558 124.629 25.8789 124.969 25.1218C125.286 24.4244 125.407 23.6673 125.581 22.9281C125.633 22.7076 125.713 22.5943 125.944 22.636C126.319 22.7016 126.694 22.6181 127.063 22.636C127.149 22.642 127.276 22.6062 127.229 22.7791C126.964 23.7865 126.808 24.8297 126.353 25.7835C125.673 27.2082 124.536 27.9355 123.054 28.156C122.138 28.311 121.187 28.2812 120.096 28.2872Z" fill="#FAFAFA"/>
<path d="M132.915 28.2811C131.848 28.293 130.891 28.299 129.951 28.0486C128.752 27.7267 128.158 26.8385 128.182 25.5509C128.198 24.1501 128.631 22.8446 128.93 21.5033C129.519 18.8804 130.147 16.2694 130.753 13.6525C130.863 13.1697 130.984 12.6928 131.094 12.2099C131.128 12.0669 131.191 11.9953 131.347 12.0013C131.722 12.0132 132.097 12.0192 132.472 12.0013C132.725 11.9894 132.748 12.0788 132.696 12.3053C132.42 13.4558 132.143 14.6123 131.878 15.7687C131.22 18.5883 130.568 21.4079 129.911 24.2275C129.825 24.6091 129.796 24.9906 129.819 25.378C129.848 25.8251 130.055 26.1411 130.448 26.3318C130.817 26.5107 131.22 26.5822 131.618 26.606C132.903 26.6895 134.19 26.7253 135.47 26.5643C136.479 26.4391 137.165 25.8847 137.557 24.925C137.915 24.0606 138.071 23.1426 138.284 22.2425C138.918 19.56 139.541 16.8775 140.169 14.195C140.325 13.5393 140.481 12.8895 140.625 12.2338C140.66 12.0728 140.717 12.0013 140.891 12.0072C141.276 12.0192 141.657 12.0192 142.044 12.0072C142.251 12.0013 142.274 12.0609 142.228 12.2636C141.773 14.1652 141.334 16.0727 140.891 17.9743C140.412 20.025 139.944 22.0756 139.437 24.1202C139.178 25.1813 138.739 26.1589 137.967 26.9399C137.217 27.6969 136.283 28.0188 135.279 28.1678C134.467 28.2811 133.641 28.3109 132.915 28.2811Z" fill="#FAFAFA"/>
<path d="M104.585 28.1441C104.758 27.393 104.919 26.6538 105.093 25.9146C105.935 22.2962 106.782 18.6838 107.63 15.0654C107.849 14.1235 108.085 13.1817 108.298 12.2398C108.339 12.0491 108.42 12.0073 108.593 12.0073C111.436 12.0133 114.278 12.0133 117.127 12.0073C117.363 12.0073 117.404 12.0908 117.346 12.3054C117.254 12.6571 117.156 13.0148 117.098 13.3724C117.064 13.593 116.96 13.6347 116.769 13.6288C114.503 13.6228 112.237 13.6288 109.965 13.6168C109.671 13.6168 109.567 13.6943 109.497 13.9984C109.14 15.6079 108.759 17.2114 108.368 18.8149C108.31 19.0593 108.356 19.113 108.593 19.107C110.767 19.1011 112.935 19.107 115.108 19.0951C115.369 19.0951 115.455 19.1368 115.363 19.423C115.259 19.733 115.195 20.0549 115.138 20.3708C115.103 20.5616 115.016 20.6033 114.843 20.6092C113.604 20.6629 112.364 20.6212 111.124 20.6331C110.144 20.639 109.164 20.639 108.189 20.6271C107.993 20.6271 107.929 20.7106 107.883 20.8954C107.468 22.6956 107.047 24.4959 106.621 26.2902C106.575 26.475 106.632 26.5286 106.788 26.5346C106.846 26.5346 106.904 26.5346 106.96 26.5346C109.238 26.5346 111.516 26.5406 113.794 26.5286C113.979 26.5286 114.007 26.5704 113.967 26.7373C113.869 27.1367 113.771 27.542 113.684 27.9474C113.65 28.0964 113.592 28.162 113.436 28.162C110.536 28.156 107.636 28.156 104.73 28.156C104.683 28.162 104.648 28.156 104.585 28.1441Z" fill="#FAFAFA"/>
<path d="M154.378 28.1681C154.217 28.1681 154.049 28.1502 153.888 28.174C153.628 28.2038 153.565 28.1323 153.628 27.8581C153.991 26.3618 154.338 24.8596 154.689 23.3574C155.555 19.6615 156.413 15.9716 157.273 12.2757C157.319 12.0849 157.382 11.9896 157.596 12.0015C157.97 12.0253 158.345 12.0134 158.72 12.0015C158.892 11.9955 158.95 12.0313 158.898 12.234C158.443 14.1475 158.005 16.061 157.555 17.9745C156.788 21.2531 156.016 24.5318 155.26 27.8104C155.196 28.0727 155.122 28.2157 154.839 28.1681C154.689 28.1442 154.534 28.1681 154.378 28.1681Z" fill="#FAFAFA"/>
</svg>
