<svg width="24" height="24" viewBox="0 0 24 24" fill="none" xmlns="http://www.w3.org/2000/svg">
<path d="M4.61538 0C3.60738 0 2.76923 0.838154 2.76923 1.84615V19.3846C2.76923 20.3926 3.60738 21.2308 4.61538 21.2308H6.46153V24L9.23076 22.1538L12 24V17.3945C11.8726 17.4679 11.7369 17.5259 11.5957 17.5671C11.4969 17.78 11.3569 17.9712 11.1837 18.1297C11.0105 18.2881 10.8076 18.4106 10.5868 18.4902C10.3915 18.5539 10.1866 18.5833 9.98123 18.5769C9.72276 18.5769 9.4643 18.5437 9.23076 18.4329C8.99442 18.5361 8.73805 18.5853 8.4803 18.5769C8.27353 18.5769 8.07138 18.5612 7.87476 18.4902C7.4293 18.3282 7.06618 17.9962 6.86492 17.5671C6.72413 17.5256 6.58873 17.4677 6.46153 17.3945V19.3846H4.61538V1.84615H19.3846V19.3846H14.7692C14.5244 19.3846 14.2896 19.4819 14.1165 19.655C13.9434 19.8281 13.8461 20.0629 13.8461 20.3077C13.8461 20.5525 13.9434 20.7873 14.1165 20.9604C14.2896 21.1335 14.5244 21.2308 14.7692 21.2308H19.3846C20.3926 21.2308 21.2308 20.3926 21.2308 19.3846V1.84615C21.2308 0.838154 20.3926 0 19.3846 0H4.61538ZM7.212 4.61538C6.96718 4.63827 6.74149 4.75748 6.58456 4.94678C6.42764 5.13607 6.35234 5.37995 6.37523 5.62477C6.39812 5.86958 6.51732 6.09528 6.70662 6.2522C6.89591 6.40913 7.1398 6.48443 7.38461 6.46154H16.6154C16.8602 6.46154 17.095 6.36429 17.2681 6.19118C17.4412 6.01806 17.5385 5.78328 17.5385 5.53846C17.5385 5.29365 17.4412 5.05886 17.2681 4.88575C17.095 4.71264 16.8602 4.61538 16.6154 4.61538H7.38461C7.3557 4.61402 7.32675 4.61402 7.29784 4.61538C7.26924 4.61405 7.2406 4.61405 7.212 4.61538ZM7.212 8.30769C6.96718 8.33058 6.74149 8.44979 6.58456 8.63908C6.42764 8.82838 6.35234 9.07226 6.37523 9.31708C6.39812 9.56189 6.51732 9.78759 6.70662 9.94451C6.89591 10.1014 7.1398 10.1767 7.38461 10.1538H13.8461C14.091 10.1538 14.3258 10.0566 14.4989 9.88348C14.672 9.71037 14.7692 9.47558 14.7692 9.23077C14.7692 8.98595 14.672 8.75117 14.4989 8.57806C14.3258 8.40495 14.091 8.30769 13.8461 8.30769H7.38461C7.3557 8.30633 7.32675 8.30633 7.29784 8.30769C7.26924 8.30636 7.2406 8.30636 7.212 8.30769ZM9.23076 11.6825C9.0454 11.6827 8.86482 11.7413 8.71468 11.85C8.56454 11.9587 8.45249 12.112 8.39446 12.288C8.35661 12.3009 8.31507 12.3028 8.27907 12.3175C8.12306 12.2238 7.94143 12.1817 7.76009 12.1973C7.57875 12.2129 7.40696 12.2853 7.26923 12.4043C7.12978 12.5207 7.02993 12.6776 6.98347 12.8532C6.93701 13.0288 6.94622 13.2145 7.00984 13.3846C6.98492 13.4225 6.97476 13.4603 6.95169 13.5C6.77137 13.53 6.60495 13.6157 6.47569 13.7449C6.34643 13.8742 6.2608 14.0406 6.23076 14.2209C6.20112 14.3965 6.22688 14.577 6.30446 14.7373C6.38204 14.8975 6.50759 15.0297 6.66369 15.1154C6.67015 15.1735 6.65169 15.2326 6.66369 15.2889C6.55224 15.4246 6.48434 15.5908 6.46886 15.7657C6.45338 15.9406 6.49104 16.1161 6.57692 16.2692C6.756 16.5803 7.1123 16.7538 7.47138 16.7022C7.51753 16.7455 7.56461 16.7778 7.61538 16.8175C7.62461 17.1748 7.85261 17.5006 8.1923 17.6252C8.5283 17.748 8.90861 17.6298 9.144 17.3649C9.17815 17.3668 9.19569 17.3945 9.23076 17.3945C9.26861 17.3945 9.3083 17.3668 9.34615 17.3649C9.42585 17.4549 9.52357 17.5271 9.63298 17.5769C9.74238 17.6267 9.86103 17.6529 9.98123 17.6538C10.0809 17.6538 10.1714 17.6603 10.2692 17.6252C10.4352 17.5639 10.579 17.4541 10.6819 17.3101C10.7847 17.1661 10.842 16.9945 10.8461 16.8175C10.8951 16.7788 10.9431 16.7455 10.9901 16.7022C11.1654 16.727 11.344 16.6991 11.5034 16.622C11.6627 16.5449 11.7954 16.4221 11.8846 16.2692C11.9707 16.116 12.0085 15.9403 11.993 15.7652C11.9775 15.5901 11.9095 15.4238 11.7978 15.288C11.8108 15.2326 11.7895 15.1717 11.7978 15.1154C11.9545 15.0303 12.0805 14.8983 12.1582 14.7378C12.2359 14.5773 12.2613 14.3966 12.2308 14.2209C12.2009 14.0406 12.1153 13.8741 11.986 13.7448C11.8567 13.6155 11.6902 13.5299 11.5098 13.5C11.4877 13.4594 11.4766 13.4234 11.4517 13.3846C11.5158 13.2144 11.5253 13.0284 11.4788 12.8526C11.4323 12.6767 11.3322 12.5197 11.1923 12.4034C11.0545 12.2844 10.8827 12.212 10.7013 12.1966C10.5199 12.1812 10.3383 12.2235 10.1825 12.3175C10.1455 12.3028 10.1049 12.3009 10.0671 12.2889C10.0092 12.1127 9.89721 11.9592 9.74706 11.8504C9.59691 11.7415 9.41624 11.6827 9.23076 11.6825ZM9.23076 13.2978C10.0486 13.2978 10.7021 13.9514 10.7021 14.7692C10.7021 15.5889 10.0495 16.2406 9.23076 16.2406C9.03723 16.2417 8.8454 16.2044 8.66639 16.1309C8.48737 16.0573 8.32473 15.949 8.18788 15.8121C8.05103 15.6753 7.94269 15.5126 7.86914 15.3336C7.79558 15.1546 7.75828 14.9628 7.75938 14.7692C7.75938 13.9505 8.41292 13.2978 9.23076 13.2978Z" fill="white"/>
</svg>
