<svg width="24" height="24" viewBox="0 0 24 24" fill="none" xmlns="http://www.w3.org/2000/svg">
<path fill-rule="evenodd" clip-rule="evenodd" d="M4.47998 1.59998H4.39998C4.03358 1.59998 3.71838 1.59998 3.43998 1.66558C3.00899 1.76856 2.61494 1.98885 2.30146 2.30204C1.98799 2.61523 1.76735 3.00909 1.66398 3.43998C1.59998 3.71838 1.59998 4.03198 1.59998 4.39998V8.39998C1.59998 8.76638 1.59998 9.08158 1.66558 9.35998C1.76856 9.79096 1.98885 10.185 2.30204 10.4985C2.61523 10.812 3.00909 11.0326 3.43998 11.136C3.71838 11.2 4.03198 11.2 4.39998 11.2H8.39998C8.76638 11.2 9.08157 11.2 9.35997 11.1344C9.79096 11.0314 10.185 10.8111 10.4985 10.4979C10.812 10.1847 11.0326 9.79086 11.136 9.35998C11.2 9.08158 11.2 8.76798 11.2 8.39998V4.39998C11.2 4.03358 11.2 3.71838 11.1344 3.43998C11.0314 3.00899 10.8111 2.61494 10.4979 2.30146C10.1847 1.98799 9.79086 1.76735 9.35997 1.66398C9.08157 1.59998 8.76798 1.59998 8.39998 1.59998H4.47998ZM3.81278 3.22238C3.88158 3.20638 3.98878 3.19998 4.47998 3.19998H8.31997C8.81277 3.19998 8.91838 3.20478 8.98718 3.22238C9.1309 3.25675 9.2623 3.33026 9.3668 3.43475C9.47129 3.53925 9.5448 3.67065 9.57918 3.81438C9.59518 3.88158 9.59998 3.98718 9.59998 4.47998V8.31998C9.59998 8.81278 9.59518 8.91838 9.57758 8.98718C9.5432 9.1309 9.46969 9.2623 9.3652 9.3668C9.2607 9.47129 9.1293 9.54481 8.98558 9.57918C8.91998 9.59358 8.81437 9.59998 8.31997 9.59998H4.47998C3.98718 9.59998 3.88158 9.59518 3.81278 9.57758C3.66905 9.54321 3.53765 9.4697 3.43315 9.3652C3.32866 9.2607 3.25515 9.1293 3.22078 8.98558C3.20638 8.91998 3.19998 8.81438 3.19998 8.31998V4.47998C3.19998 3.98718 3.20478 3.88158 3.22238 3.81278C3.25675 3.66905 3.33026 3.53765 3.43475 3.43315C3.53925 3.32866 3.67065 3.25515 3.81438 3.22078L3.81278 3.22238ZM15.68 1.59998H15.6C15.2336 1.59998 14.9184 1.59998 14.64 1.66558C14.209 1.76856 13.8149 1.98885 13.5015 2.30204C13.188 2.61523 12.9673 3.00909 12.864 3.43998C12.8 3.71838 12.8 4.03198 12.8 4.39998V8.39998C12.8 8.76638 12.8 9.08158 12.8656 9.35998C12.9686 9.79096 13.1888 10.185 13.502 10.4985C13.8152 10.812 14.2091 11.0326 14.64 11.136C14.9184 11.2 15.232 11.2 15.6 11.2H19.6C19.9664 11.2 20.2816 11.2 20.56 11.1344C20.991 11.0314 21.385 10.8111 21.6985 10.4979C22.012 10.1847 22.2326 9.79086 22.336 9.35998C22.4 9.08158 22.4 8.76798 22.4 8.39998V4.39998C22.4 4.03358 22.4 3.71838 22.3344 3.43998C22.2314 3.00899 22.0111 2.61494 21.6979 2.30146C21.3847 1.98799 20.9909 1.76735 20.56 1.66398C20.2816 1.59998 19.968 1.59998 19.6 1.59998H15.68ZM15.0128 3.22238C15.0816 3.20638 15.1888 3.19998 15.68 3.19998H19.52C20.0128 3.19998 20.1184 3.20478 20.1872 3.22238C20.3309 3.25675 20.4623 3.33026 20.5668 3.43475C20.6713 3.53925 20.7448 3.67065 20.7792 3.81438C20.7952 3.88158 20.8 3.98718 20.8 4.47998V8.31998C20.8 8.81278 20.7936 8.91838 20.7776 8.98718C20.7432 9.1309 20.6697 9.2623 20.5652 9.3668C20.4607 9.47129 20.3293 9.54481 20.1856 9.57918C20.1184 9.59518 20.0128 9.59998 19.52 9.59998H15.68C15.1872 9.59998 15.0816 9.59518 15.0128 9.57758C14.869 9.54321 14.7376 9.4697 14.6332 9.3652C14.5287 9.2607 14.4551 9.1293 14.4208 8.98558C14.4064 8.91998 14.4 8.81438 14.4 8.31998V4.47998C14.4 3.98718 14.4048 3.88158 14.4224 3.81278C14.4567 3.66905 14.5303 3.53765 14.6348 3.43315C14.7392 3.32866 14.8706 3.25515 15.0144 3.22078L15.0128 3.22238ZM4.39998 12.8H8.39998C8.76638 12.8 9.08157 12.8 9.35997 12.8656C9.79096 12.9686 10.185 13.1888 10.4985 13.502C10.812 13.8152 11.0326 14.2091 11.136 14.64C11.2 14.9184 11.2 15.232 11.2 15.6V19.6C11.2 19.9664 11.2 20.2816 11.1344 20.56C11.0314 20.991 10.8111 21.385 10.4979 21.6985C10.1847 22.012 9.79086 22.2326 9.35997 22.336C9.08157 22.4 8.76798 22.4 8.39998 22.4H4.39998C4.03358 22.4 3.71838 22.4 3.43998 22.3344C3.00899 22.2314 2.61494 22.0111 2.30146 21.6979C1.98799 21.3847 1.76735 20.9909 1.66398 20.56C1.59998 20.2816 1.59998 19.968 1.59998 19.6V15.6C1.59998 15.2336 1.59998 14.9184 1.66558 14.64C1.76856 14.209 1.98885 13.8149 2.30204 13.5015C2.61523 13.188 3.00909 12.9673 3.43998 12.864C3.71838 12.8 4.03198 12.8 4.39998 12.8ZM4.47998 14.4C3.98718 14.4 3.88158 14.4048 3.81278 14.4224C3.66905 14.4567 3.53765 14.5303 3.43315 14.6348C3.32866 14.7392 3.25515 14.8706 3.22078 15.0144C3.20638 15.08 3.19998 15.1856 3.19998 15.68V19.52C3.19998 20.0128 3.20478 20.1184 3.22238 20.1872C3.25675 20.3309 3.33026 20.4623 3.43475 20.5668C3.53925 20.6713 3.67065 20.7448 3.81438 20.7792C3.88158 20.7952 3.98718 20.8 4.47998 20.8H8.31997C8.81277 20.8 8.91838 20.7936 8.98718 20.7776C9.1309 20.7432 9.2623 20.6697 9.3668 20.5652C9.47129 20.4607 9.5448 20.3293 9.57918 20.1856C9.59518 20.1184 9.59998 20.0128 9.59998 19.52V15.68C9.59998 15.1872 9.59518 15.0816 9.57758 15.0128C9.5432 14.869 9.46969 14.7376 9.3652 14.6332C9.2607 14.5287 9.1293 14.4551 8.98558 14.4208C8.91998 14.4064 8.81437 14.4 8.31997 14.4H4.47998ZM15.68 12.8H15.6C15.2336 12.8 14.9184 12.8 14.64 12.8656C14.209 12.9686 13.8149 13.1888 13.5015 13.502C13.188 13.8152 12.9673 14.2091 12.864 14.64C12.8 14.9184 12.8 15.232 12.8 15.6V19.6C12.8 19.9664 12.8 20.2816 12.8656 20.56C12.9686 20.991 13.1888 21.385 13.502 21.6985C13.8152 22.012 14.2091 22.2326 14.64 22.336C14.9184 22.4016 15.2336 22.4016 15.6 22.4016H19.6C19.9664 22.4016 20.2816 22.4016 20.56 22.336C20.9907 22.2327 21.3844 22.0123 21.6976 21.6992C22.0107 21.386 22.2311 20.9923 22.3344 20.5616C22.4 20.2832 22.4 19.968 22.4 19.6016V15.6C22.4 15.2336 22.4 14.9184 22.3344 14.64C22.2314 14.209 22.0111 13.8149 21.6979 13.5015C21.3847 13.188 20.9909 12.9673 20.56 12.864C20.2816 12.8 19.968 12.8 19.6 12.8H15.68ZM15.0128 14.4224C15.0816 14.4064 15.1888 14.4 15.68 14.4H19.52C20.0128 14.4 20.1184 14.4048 20.1872 14.4224C20.3309 14.4567 20.4623 14.5303 20.5668 14.6348C20.6713 14.7392 20.7448 14.8706 20.7792 15.0144C20.7952 15.0816 20.8 15.1872 20.8 15.68V19.52C20.8 20.0128 20.7936 20.1184 20.7776 20.1872C20.7432 20.3309 20.6697 20.4623 20.5652 20.5668C20.4607 20.6713 20.3293 20.7448 20.1856 20.7792C20.1184 20.7952 20.0128 20.8 19.52 20.8H15.68C15.1872 20.8 15.0816 20.7936 15.0128 20.7776C14.869 20.7432 14.7376 20.6697 14.6332 20.5652C14.5287 20.4607 14.4551 20.3293 14.4208 20.1856C14.4064 20.12 14.4 20.0144 14.4 19.52V15.68C14.4 15.1872 14.4048 15.0816 14.4224 15.0128C14.4567 14.869 14.5303 14.7376 14.6348 14.6332C14.7392 14.5287 14.8706 14.4551 15.0144 14.4208L15.0128 14.4224Z" fill="white"/>
</svg>
