<svg width="16" height="20" viewBox="0 0 16 20" fill="none" xmlns="http://www.w3.org/2000/svg">
<g clip-path="url(#clip0_404_155)">
<path d="M16 16.2874C16 17.1957 15.7396 17.9749 15.2188 18.6249C14.6979 19.2749 14.0708 19.5999 13.3375 19.5999H2.6625C1.92917 19.5999 1.30208 19.2749 0.78125 18.6249C0.260417 17.9749 0 17.1957 0 16.2874C0 15.5791 0.0354167 14.9103 0.10625 14.2812C0.177083 13.652 0.308333 13.0187 0.5 12.3812C0.691667 11.7437 0.935417 11.1978 1.23125 10.7437C1.52708 10.2895 1.91875 9.91865 2.40625 9.63115C2.89375 9.34365 3.45417 9.1999 4.0875 9.1999C5.17917 10.2666 6.48333 10.7999 8 10.7999C9.51667 10.7999 10.8208 10.2666 11.9125 9.1999C12.5458 9.1999 13.1063 9.34365 13.5938 9.63115C14.0813 9.91865 14.4729 10.2895 14.7688 10.7437C15.0646 11.1978 15.3083 11.7437 15.5 12.3812C15.6917 13.0187 15.8229 13.652 15.8938 14.2812C15.9646 14.9103 16 15.5791 16 16.2874ZM12.8 5.1999C12.8 6.5249 12.3313 7.65615 11.3938 8.59365C10.4563 9.53115 9.325 9.9999 8 9.9999C6.675 9.9999 5.54375 9.53115 4.60625 8.59365C3.66875 7.65615 3.2 6.5249 3.2 5.1999C3.2 3.8749 3.66875 2.74365 4.60625 1.80615C5.54375 0.868652 6.675 0.399902 8 0.399902C9.325 0.399902 10.4563 0.868652 11.3938 1.80615C12.3313 2.74365 12.8 3.8749 12.8 5.1999Z" fill="white"/>
</g>
<defs>
<clipPath id="clip0_404_155">
<rect width="16" height="19.2" fill="white" transform="translate(0 0.399902)"/>
</clipPath>
</defs>
</svg>
