<svg width="15" height="16" viewBox="0 0 15 16" fill="none" xmlns="http://www.w3.org/2000/svg">
<path d="M15 8.5V7.5H8V6H9.75C9.94884 5.99978 10.1395 5.92069 10.2801 5.78008C10.4207 5.63948 10.4998 5.44884 10.5 5.25V1.25C10.4998 1.05116 10.4207 0.86052 10.2801 0.719917C10.1395 0.579313 9.94884 0.500223 9.75 0.5H5.25C5.05116 0.500223 4.86052 0.579313 4.71992 0.719917C4.57931 0.86052 4.50022 1.05116 4.5 1.25V5.25C4.50022 5.44884 4.57931 5.63948 4.71992 5.78008C4.86052 5.92069 5.05116 5.99978 5.25 6H7V7.5H0V8.5H2.5V10H0.793469C0.594627 10.0002 0.403997 10.0793 0.263394 10.2199C0.122792 10.3605 0.0437003 10.5512 0.0434688 10.75V14.75C0.0437003 14.9488 0.122792 15.1395 0.263394 15.2801C0.403997 15.4207 0.594627 15.4998 0.793469 15.5H5.25C5.44884 15.4998 5.63948 15.4207 5.78008 15.2801C5.92069 15.1395 5.99978 14.9488 6 14.75V10.75C5.99978 10.5512 5.92069 10.3605 5.78008 10.2199C5.63948 10.0793 5.44884 10.0002 5.25 10H3.5V8.5H11.5V10H9.75C9.55116 10.0002 9.36052 10.0793 9.21992 10.2199C9.07931 10.3605 9.00022 10.5512 9 10.75V14.75C9.00022 14.9488 9.07931 15.1395 9.21992 15.2801C9.36052 15.4207 9.55116 15.4998 9.75 15.5H14.25C14.4488 15.4998 14.6395 15.4207 14.7801 15.2801C14.9207 15.1395 14.9998 14.9488 15 14.75V10.75C14.9998 10.5512 14.9207 10.3605 14.7801 10.2199C14.6395 10.0793 14.4488 10.0002 14.25 10H12.5V8.5H15ZM5.5 1.5H9.5V5H5.5V1.5ZM5 14.5H1.04347V11H5V14.5ZM14 14.5H10V11H14V14.5Z" fill="#79757B"/>
</svg>
