<svg width="24" height="24" viewBox="0 0 24 24" fill="none" xmlns="http://www.w3.org/2000/svg">
<path d="M22.5 1.5V22.5H1.5V1.5H22.5ZM3 3V15H4.75781L6.03516 13.7227C6.18359 13.5742 6.35938 13.5 6.5625 13.5C6.76562 13.5 6.94141 13.5742 7.08984 13.7227L9.16406 15.7852L12.0234 4.6875C12.0625 4.52344 12.1504 4.38867 12.2871 4.2832C12.4238 4.17773 12.5781 4.125 12.75 4.125C12.9297 4.125 13.0859 4.17773 13.2188 4.2832C13.3516 4.38867 13.4375 4.52734 13.4766 4.69922L14.6719 9.58594H16.5C16.6719 9.58594 16.8262 9.63867 16.9629 9.74414C17.0996 9.84961 17.1875 9.98438 17.2266 10.1484L18.0703 13.5H21V3H3ZM21 21V15H17.4844C17.3047 15 17.1484 14.9473 17.0156 14.8418C16.8828 14.7363 16.7969 14.5977 16.7578 14.4258L15.9141 11.0859H14.0859C13.9062 11.0859 13.75 11.0332 13.6172 10.9277C13.4844 10.8223 13.3984 10.6836 13.3594 10.5117L12.7266 7.95703L10.2891 17.4375C10.25 17.6016 10.1621 17.7363 10.0254 17.8418C9.88867 17.9473 9.73438 18 9.5625 18C9.35938 18 9.18359 17.9258 9.03516 17.7773L6.5625 15.3047L5.58984 16.2773C5.44141 16.4258 5.26562 16.5 5.0625 16.5H3V21H21Z" fill="white"/>
</svg>
