<svg width="24" height="24" viewBox="0 0 24 24" fill="none" xmlns="http://www.w3.org/2000/svg">
<path d="M10 13.5H14.5V16.5H10V13.5ZM4 13.5H8.5V16.5H4V13.5ZM10 18H4V21H11.5V18H10ZM14.5 18H13V21H20.5V18H16H14.5ZM16 13.5H20.5V16.5H16V13.5ZM7 9.9C7 10.65 7.15 11.4 7.45 12H17.05C17.35 11.4 17.5 10.65 17.5 9.9C17.5 7.2 15.7 5.85 14.35 4.8C13 3.75 12.7 2.25 12.7 1.5C10.75 3 9.7 4.2 9.25 5.25C8.5 7.2 9.4 8.7 9.4 8.7C9.55 9 9.55 9.15 9.4 9.3C9.25 9.3 9.1 9.15 8.95 9.15C8.95 9.15 8.8 9 8.8 8.85C8.5 8.4 8.5 7.65 8.5 7.65C8.35 7.2 8.35 6.45 8.5 6C8.5 6 7.75 6.45 7.3 7.5C7 8.4 7 9.45 7 9.9Z" fill="white"/>
</svg>
