<svg width="14" height="15" viewBox="0 0 14 15" fill="none" xmlns="http://www.w3.org/2000/svg">
<path d="M7.31254 0.333252C5.89805 0.333252 4.5415 0.895155 3.5413 1.89535C2.54111 2.89554 1.97921 4.2521 1.97921 5.66659C1.97921 8.35325 3.97921 10.6133 6.64587 10.9533V11.6666H5.97921C5.8024 11.6666 5.63283 11.7368 5.5078 11.8618C5.38278 11.9869 5.31254 12.1564 5.31254 12.3333H0.645874V13.6666H5.31254C5.31254 13.8434 5.38278 14.013 5.5078 14.138C5.63283 14.263 5.8024 14.3333 5.97921 14.3333H8.64587C8.82268 14.3333 8.99225 14.263 9.11728 14.138C9.2423 14.013 9.31254 13.8434 9.31254 13.6666H13.9792V12.3333H9.31254C9.31254 12.1564 9.2423 11.9869 9.11728 11.8618C8.99225 11.7368 8.82268 11.6666 8.64587 11.6666H7.97921V10.9533C10.6459 10.6199 12.6459 8.35325 12.6459 5.66659C12.6459 4.2521 12.084 2.89554 11.0838 1.89535C10.0836 0.895155 8.72703 0.333252 7.31254 0.333252ZM7.31254 1.66659C7.31254 1.66659 7.80587 2.51992 8.15254 3.66659H6.47254C6.81921 2.51992 7.31254 1.66659 7.31254 1.66659ZM5.82587 1.95325C5.64587 2.28659 5.37254 2.89325 5.13921 3.66659H3.85254C4.31254 2.89325 4.97921 2.28659 5.82587 1.95325ZM8.79921 1.95992C9.64587 2.29325 10.3125 2.89325 10.7725 3.66659H9.48587C9.25254 2.89325 8.97921 2.28659 8.79921 1.95992ZM3.37254 4.99992H4.85921C4.83254 5.21992 4.81254 5.43992 4.81254 5.66659C4.81254 5.89325 4.83254 6.11325 4.85921 6.33325H3.37254C3.29181 5.89247 3.29181 5.4407 3.37254 4.99992ZM6.19254 4.99992H8.43254C8.45921 5.21992 8.47921 5.43992 8.47921 5.66659C8.47921 5.89325 8.45921 6.11325 8.43254 6.33325H6.19254C6.16587 6.11325 6.14587 5.89325 6.14587 5.66659C6.14587 5.43992 6.16587 5.21992 6.19254 4.99992ZM9.76587 4.99992H11.2525C11.3333 5.4407 11.3333 5.89247 11.2525 6.33325H9.76587C9.79254 6.11325 9.81254 5.89325 9.81254 5.66659C9.81254 5.43992 9.79254 5.21992 9.76587 4.99992ZM3.85254 7.66659H5.13921C5.37254 8.43992 5.64587 9.04659 5.82587 9.37325C4.97921 9.03992 4.31254 8.43992 3.85254 7.66659ZM6.47254 7.66659H8.15254C7.80587 8.81325 7.31254 9.66659 7.31254 9.66659C7.31254 9.66659 6.81921 8.81325 6.47254 7.66659ZM9.48587 7.66659H10.7725C10.3125 8.43992 9.64587 9.04659 8.79921 9.37992C8.97921 9.04659 9.25254 8.43992 9.48587 7.66659Z" fill="#79757B"/>
</svg>
