<svg width="24" height="24" viewBox="0 0 24 24" fill="none" xmlns="http://www.w3.org/2000/svg">
<g clip-path="url(#clip0_86_81)">
<path d="M19.3665 7.59292C19.0388 5.8793 18.1239 4.33354 16.7794 3.22175C15.4348 2.10996 13.7447 1.50171 12 1.50171C10.2553 1.50171 8.56524 2.10996 7.22068 3.22175C5.87612 4.33354 4.96123 5.8793 4.63352 7.59292C3.24929 7.83931 2.00762 8.59541 1.15338 9.71213C0.299137 10.8289 -0.105671 12.2251 0.018785 13.6256C0.143241 15.026 0.787928 16.329 1.82571 17.2776C2.86349 18.2262 4.21903 18.7515 5.62502 18.7499H6.00002V17.2499H5.62502C4.55443 17.2527 3.52477 16.8389 2.7539 16.0959C1.98304 15.353 1.53146 14.3393 1.49472 13.2694C1.45799 12.1994 1.83897 11.1572 2.55707 10.3631C3.27516 9.56908 4.27401 9.08558 5.34227 9.01492L5.96927 8.97217L6.03677 8.34742C6.19681 6.87764 6.89402 5.51874 7.99459 4.53151C9.09516 3.54428 10.5215 2.99827 12 2.99827C13.4785 2.99827 14.9049 3.54428 16.0054 4.53151C17.106 5.51874 17.8032 6.87764 17.9633 8.34742L18.0308 8.97217L18.6578 9.01567C19.7239 9.08913 20.7198 9.57374 21.4355 10.3673C22.1511 11.1609 22.5307 12.2014 22.494 13.2694C22.4573 14.3374 22.0073 15.3494 21.2389 16.092C20.4704 16.8346 19.4436 17.2498 18.375 17.2499H18V18.7499H18.375C19.781 18.7515 21.1365 18.2262 22.1743 17.2776C23.2121 16.329 23.8568 15.026 23.9812 13.6256C24.1057 12.2251 23.7009 10.8289 22.8467 9.71213C21.9924 8.59541 20.7507 7.83931 19.3665 7.59292Z" fill="white"/>
<path d="M17.25 16.5V15H15.6742C15.5775 14.5305 15.3911 14.0841 15.1252 13.6852L16.2428 12.5677L15.1823 11.5073L14.0648 12.6248C13.6659 12.3589 13.2195 12.1725 12.75 12.0757V10.5H11.25V12.0757C10.7805 12.1725 10.3341 12.3589 9.93525 12.6248L8.81775 11.5073L7.75725 12.5677L8.87475 13.6852C8.60888 14.0841 8.42248 14.5305 8.32575 15H6.75V16.5H8.32575C8.42248 16.9695 8.60888 17.4159 8.87475 17.8148L7.75725 18.9323L8.81775 19.9928L9.93525 18.8752C10.3341 19.1411 10.7805 19.3275 11.25 19.4242V21H12.75V19.4242C13.2195 19.3275 13.6659 19.1411 14.0648 18.8752L15.1823 19.9928L16.2428 18.9323L15.1252 17.8148C15.3911 17.4159 15.5775 16.9695 15.6742 16.5H17.25ZM12 18C11.555 18 11.12 17.868 10.75 17.6208C10.38 17.3736 10.0916 17.0222 9.92127 16.611C9.75097 16.1999 9.70642 15.7475 9.79323 15.311C9.88005 14.8746 10.0943 14.4737 10.409 14.159C10.7237 13.8443 11.1246 13.63 11.561 13.5432C11.9975 13.4564 12.4499 13.501 12.861 13.6713C13.2722 13.8416 13.6236 14.13 13.8708 14.5C14.118 14.87 14.25 15.305 14.25 15.75C14.2494 16.3466 14.0122 16.9185 13.5903 17.3403C13.1685 17.7622 12.5966 17.9994 12 18Z" fill="white"/>
</g>
<defs>
<clipPath id="clip0_86_81">
<rect width="24" height="24" fill="white"/>
</clipPath>
</defs>
</svg>
