<svg width="24" height="24" viewBox="0 0 24 24" fill="none" xmlns="http://www.w3.org/2000/svg">
<path d="M19 12.9999C19 15.0799 18.2 16.9699 16.9 18.3899V16.9999H14V12.9999H7V10.9999H10V7.9999H14V3.4599C13.05 3.1599 12.05 2.9999 11 2.9999C5.48 2.9999 1 7.4799 1 12.9999C1 18.5199 5.48 22.9999 11 22.9999C16.52 22.9999 21 18.5199 21 12.9999C21 12.6599 20.98 12.3299 20.95 11.9999H18.92C18.96 12.3299 19 12.6599 19 12.9999ZM10 20.9299C6.05 20.4399 3 17.0799 3 12.9999C3 12.3799 3.08 11.7899 3.21 11.2099L8 15.9999V18.9999H10V20.9299ZM22 3.9999V3.6399C22 2.3299 21.06 1.1399 19.76 1.0099C19.4114 0.973439 19.059 1.01071 18.7257 1.11928C18.3924 1.22785 18.0856 1.4053 17.8254 1.64011C17.5651 1.87492 17.3571 2.16184 17.2149 2.48224C17.0727 2.80264 16.9995 3.14936 17 3.4999V3.9999H16V9.9999H23V3.9999H22ZM21 3.9999H18V3.4999C18 2.6699 18.67 1.9999 19.5 1.9999C20.33 1.9999 21 2.6699 21 3.4999V3.9999Z" fill="white"/>
</svg>
